<?xml version="1.0" encoding="UTF-8" standalone="no"?>
<svg
   width="250"
   height="250"
   viewBox="0 0 249.99999 250"
   version="1.1"
   id="svg24"
   xmlns="http://www.w3.org/2000/svg"
   xmlns:svg="http://www.w3.org/2000/svg">
  <defs
     id="defs28" />
  <path
     id="path8353"
     style="color:#000000;display:inline;fill:#000000;stroke-width:0.974218;stroke-miterlimit:8;-inkscape-stroke:none"
     d="M 125.00094,0 C 56.080426,0 0,56.080001 0,124.99999 0,193.92 56.080426,250 125.00094,250 193.92148,250 250,193.92 250,124.99999 250,56.080001 193.92148,0 125.00094,0 Z m 0,19.484275 c 25.67755,0 49.17136,9.119252 67.442,24.296359 L 43.779068,192.44148 C 28.60232,174.1707 19.484425,150.6769 19.484425,124.99999 c 0,-58.389925 47.12614,-105.515715 105.516515,-105.515715 z m 81.21999,38.074255 c 15.17638,18.270771 24.29465,41.764543 24.29465,67.44146 0,58.38994 -47.12425,105.51574 -105.51464,105.51574 -25.67804,0 -49.172673,-9.1187 -67.443868,-24.29637 z" />
</svg>
