<?xml version="1.0" encoding="UTF-8" standalone="no"?>
<!-- Created with Inkscape (http://www.inkscape.org/) -->

<svg
   width="500"
   height="500"
   viewBox="0 0 132.29167 132.29167"
   version="1.1"
   id="svg5"
   xmlns="http://www.w3.org/2000/svg"
   xmlns:svg="http://www.w3.org/2000/svg">
  <defs
     id="defs2" />
  <g
     id="layer1"
     style="display:none"
     transform="translate(1.3229129)">
    <path
       id="path856"
       style="display:inline;opacity:0.522597;stroke-width:0.264583"
       d="m 64.822923,129.64584 c -6.614583,0 -0.44857,-6.43862 -10.583333,-23.8125 C 44.979172,89.958339 1.3229206,84.666672 1.3229206,46.302082 c 0,-24.110681 39.3893194,-43.6562503 63.5000004,-43.6562504 2e-6,26.4583354 2e-6,52.9166694 2e-6,127.0000084 z" />
    <rect
       style="fill:#000000;stroke-width:0.0649999;stroke-linecap:round;stroke-linejoin:round;paint-order:stroke markers fill"
       id="rect2"
       width="127.00001"
       height="87.3125"
       x="1.3229204"
       y="2.6458335"
       ry="43.65625" />
    <rect
       style="fill:#4d4d4d;stroke-width:0.0649999;stroke-linecap:round;stroke-linejoin:round;paint-order:stroke markers fill"
       id="rect4"
       width="105.83334"
       height="66.145836"
       x="11.906254"
       y="13.229167"
       ry="33.072918" />
    <path
       id="path4"
       style="display:inline;opacity:0.522597;stroke-width:0.264583"
       d="m 64.822925,129.64584 c 6.614583,0 0.44857,-6.43862 10.583333,-23.8125 9.260418,-15.875001 52.916672,-21.166668 52.916672,-59.531258 0,-24.110681 -39.389322,-43.6562506 -63.500003,-43.6562507 -2e-6,26.4583357 -2e-6,52.9166697 -2e-6,127.0000087 z" />
  </g>
  <path
     id="path5"
     style="display:inline;opacity:0.522597;stroke-width:0.264583"
     d="M 44.979172 2.6458334 C 20.79361 2.6458334 1.3229205 22.116523 1.3229205 46.302085 C 1.3229205 46.306375 1.3229193 46.310714 1.3229205 46.315004 C 1.3244354 52.262053 2.3751809 57.414268 4.1842446 61.934206 C 8.1956796 72.452753 16.146759 80.995024 26.252149 85.776679 C 37.76952 93.177023 49.856763 98.319918 54.239589 105.83334 C 64.374351 123.20722 58.208339 129.64584 64.822922 129.64584 C 71.437505 129.64584 65.271493 123.20722 75.406256 105.83334 C 79.789081 98.319917 91.876318 93.177024 103.3937 85.776679 C 112.94014 81.259502 120.50794 73.357388 124.70402 63.632293 C 126.96279 58.70769 128.3229 53.020981 128.32292 46.302085 C 128.32292 22.116522 108.85223 2.6458334 84.666673 2.6458334 L 64.822922 2.6458334 L 64.810003 2.6458334 L 44.979172 2.6458334 z M 44.979172 13.229167 L 84.666673 13.229167 C 102.98907 13.229167 117.73959 27.979688 117.73959 46.302085 C 117.73959 64.624481 102.98907 79.375002 84.666673 79.375002 L 44.979172 79.375002 C 26.656775 79.375002 11.906254 64.624481 11.906254 46.302085 C 11.906254 27.979688 26.656775 13.229167 44.979172 13.229167 z "
     transform="translate(1.3229129)" />
</svg>
