<?xml version="1.0" encoding="UTF-8" standalone="no"?>
<!-- Created with Inkscape (http://www.inkscape.org/) -->

<svg
   width="512"
   height="512"
   viewBox="0 0 512 512"
   version="1.1"
   id="svg5"
   xmlns:xlink="http://www.w3.org/1999/xlink"
   xmlns="http://www.w3.org/2000/svg"
   xmlns:svg="http://www.w3.org/2000/svg">
  <defs
     id="defs2">
    <linearGradient
       id="linearGradient3450">
      <stop
         style="stop-color:#c3830e;stop-opacity:1;"
         offset="0"
         id="stop3446" />
      <stop
         style="stop-color:#ffe218;stop-opacity:1;"
         offset="1"
         id="stop3448" />
    </linearGradient>
    <linearGradient
       id="linearGradient1196">
      <stop
         style="stop-color:#e6c932;stop-opacity:1;"
         offset="0.51667702"
         id="stop1192" />
      <stop
         style="stop-color:#c3830e;stop-opacity:1;"
         offset="1"
         id="stop1194" />
    </linearGradient>
    <radialGradient
       xlink:href="#linearGradient1196"
       id="radialGradient1264"
       cx="42.980968"
       cy="87.500946"
       fx="42.980968"
       fy="87.500946"
       r="8.343936"
       gradientTransform="matrix(28.355234,0,0,30.680964,-984.62933,-2466.1457)"
       gradientUnits="userSpaceOnUse" />
    <linearGradient
       xlink:href="#linearGradient3450"
       id="linearGradient3452"
       x1="45.214294"
       y1="88.793221"
       x2="51.894505"
       y2="88.793221"
       gradientUnits="userSpaceOnUse"
       gradientTransform="matrix(28.355234,0,0,28.355234,-984.62933,-2253.5521)" />
  </defs>
  <g
     id="layer1"
     transform="translate(-35.994184,-82.381019)" />
  <g
     id="layer2"
     transform="translate(-35.994184,-82.381019)">
    <g
       id="g4909"
       transform="translate(19.405757)">
      <path
         id="path396"
         style="font-size:25.4px;line-height:1.25;font-family:Lobster;-inkscape-font-specification:Lobster;fill:url(#radialGradient1264);fill-opacity:1;stroke-width:7.50231"
         d="m 288.78728,82.381019 c -39.37207,0 -78.74549,9.126132 -118.11761,27.371761 -39.3721,17.76546 -71.774645,41.29435 -97.222475,70.58338 -24.967663,28.80886 -37.453011,58.56575 -37.453011,89.29523 0,24.96769 6.242688,42.98214 18.726506,54.02551 12.964013,10.56326 32.405524,15.83988 58.33349,15.83988 0,-0.96039 -1.67948,-4.79518 -5.04062,-11.51724 -3.36103,-7.20223 -5.04063,-19.68752 -5.04063,-37.45301 0,-38.41182 8.65048,-70.82902 25.93577,-97.23716 17.76546,-26.88825 42.72147,-46.8055 74.89133,-59.76946 L 96.496314,431.61577 c 3.841196,-0.47921 9.355636,-0.71796 16.557866,-0.71796 20.64636,0 40.81609,4.08741 60.50213,12.25003 20.16619,8.16234 38.65633,18.00217 55.46151,29.52574 17.28529,12.00362 37.93071,27.61006 61.93812,46.81619 32.16987,25.44769 58.5676,44.16101 79.21398,56.16491 21.12646,12.48337 42.5001,18.72634 64.10673,18.72634 19.68608,0 36.00624,-10.07745 48.97026,-30.24367 13.44412,-20.16624 22.09457,-47.76779 25.93576,-82.81855 -18.72579,7.68229 -38.89549,11.51705 -60.50213,11.51705 -24.00738,0 -47.06061,-4.56292 -69.14738,-13.68565 -22.0868,-8.64268 -48.7224,-21.36596 -79.93196,-38.17125 C 279.43496,429.93572 262.14873,421.04749 247.74432,414.32531 233.82,408.08347 220.13083,403.28236 206.68668,399.92142 L 317.59503,83.817013 c -12.48381,-0.960392 -22.08566,-1.435909 -28.80775,-1.435909 z" />
      <path
         d="M 486.85154,109.75281 380.2658,124.15667 303.19117,283.9725 c -3.8412,19.20591 -5.75864,34.81254 -5.75864,46.81625 0,29.28903 6.95619,51.37608 20.88051,66.2606 14.40444,14.40445 33.13239,21.59874 56.17949,21.59874 20.64638,0 38.42293,-6.48058 53.30753,-19.4446 15.36474,-13.44435 24.00049,-32.1721 25.92111,-56.17951 -6.72209,2.88089 -14.40647,4.32261 -23.04915,4.32261 -19.68607,0 -29.52574,-9.60182 -29.52574,-28.80773 0,-6.72209 0.96607,-13.67828 2.88665,-20.88051 z"
         style="font-size:25.4px;line-height:1.25;font-family:Lobster;-inkscape-font-specification:Lobster;fill:url(#linearGradient3452);fill-opacity:1;stroke-width:7.50231"
         id="path539" />
    </g>
  </g>
</svg>
